<svg width="14" height="14" viewBox="0 0 14 14" fill="none" xmlns="http://www.w3.org/2000/svg">
<path d="M5.24998 7.58335V4.66669L6.99998 3.50002L8.74998 4.66669V7.58335H7.58331V5.83335H6.41665V7.58335H5.24998ZM6.99998 11.2875C8.18609 10.1986 9.06595 9.2093 9.63956 8.31952C10.2132 7.43013 10.5 6.6403 10.5 5.95002C10.5 4.8903 10.162 4.02249 9.48615 3.3466C8.81065 2.6711 7.98192 2.33335 6.99998 2.33335C6.01804 2.33335 5.18912 2.6711 4.51323 3.3466C3.83773 4.02249 3.49998 4.8903 3.49998 5.95002C3.49998 6.6403 3.78679 7.43013 4.3604 8.31952C4.93401 9.2093 5.81387 10.1986 6.99998 11.2875ZM6.99998 12.8334C5.4347 11.5014 4.2657 10.2642 3.49298 9.1216C2.71987 7.97944 2.33331 6.92224 2.33331 5.95002C2.33331 4.49169 2.80251 3.32988 3.7409 2.4646C4.6789 1.59933 5.76526 1.16669 6.99998 1.16669C8.2347 1.16669 9.32106 1.59933 10.2591 2.4646C11.1975 3.32988 11.6666 4.49169 11.6666 5.95002C11.6666 6.92224 11.2803 7.97944 10.5076 9.1216C9.73445 10.2642 8.56526 11.5014 6.99998 12.8334Z" fill="black"/>
</svg>
