<svg width="100" height="100" viewBox="0 0 100 100" fill="none" xmlns="http://www.w3.org/2000/svg">
<g filter="url(#filter0_d_44_3)">
<circle cx="50" cy="48" r="45" fill="#EF233C"/>
</g>
<path d="M25.25 69.2383V72.75C25.25 73.4793 25.5397 74.1788 26.0555 74.6945C26.5712 75.2103 27.2707 75.5 28 75.5H30.75C31.4793 75.5 32.1788 75.2103 32.6945 74.6945C33.2103 74.1788 33.5 73.4793 33.5 72.75V70H66.5V72.75C66.5 73.4793 66.7897 74.1788 67.3055 74.6945C67.8212 75.2103 68.5206 75.5 69.25 75.5H72C72.7293 75.5 73.4288 75.2103 73.9445 74.6945C74.4603 74.1788 74.75 73.4793 74.75 72.75V69.2383C75.5843 68.7598 76.2778 68.0699 76.7606 67.238C77.2434 66.4062 77.4984 65.4618 77.5 64.5V56.25C77.5 53.9648 76.1057 52.0095 74.123 51.1763L70.361 39.8903C69.8153 38.2471 68.7656 36.8177 67.3611 35.8051C65.9566 34.7926 64.2687 34.2485 62.5372 34.25H37.4627C35.7313 34.2485 34.0434 34.7926 32.6389 35.8051C31.2344 36.8177 30.1847 38.2471 29.639 39.8903L25.877 51.1763C24.8768 51.5951 24.0227 52.3002 23.4219 53.2029C22.8211 54.1056 22.5004 55.1657 22.5 56.25V64.5C22.5 66.5295 23.611 68.284 25.25 69.2383ZM32.125 64.5C31.5831 64.4998 31.0466 64.3929 30.546 64.1854C30.0454 63.9778 29.5907 63.6737 29.2076 63.2904C28.434 62.5163 27.9996 61.4666 28 60.3723C28.0004 59.2779 28.4355 58.2285 29.2096 57.4549C29.9837 56.6813 31.0334 56.2469 32.1277 56.2473C33.2221 56.2476 34.2715 56.6827 35.0451 57.4568C35.8187 58.2309 36.2531 59.2806 36.2527 60.375C36.2524 61.4694 35.8173 62.5188 35.0432 63.2924C34.2691 64.066 33.2194 64.5004 32.125 64.5ZM67.875 64.5C66.7806 64.4996 65.7312 64.0645 64.9576 63.2904C64.184 62.5163 63.7496 61.4666 63.75 60.3723C63.7504 59.2779 64.1855 58.2285 64.9596 57.4549C65.7337 56.6813 66.7834 56.2469 67.8777 56.2473C68.9721 56.2476 70.0215 56.6827 70.7951 57.4568C71.5687 58.2309 72.0031 59.2806 72.0027 60.375C72.0024 61.4694 71.5673 62.5188 70.7932 63.2924C70.0191 64.066 68.9694 64.5004 67.875 64.5ZM37.4627 39.75H62.5345C63.1119 39.7499 63.6747 39.9315 64.1431 40.2691C64.6115 40.6067 64.9618 41.0832 65.1442 41.631L68.1857 50.75H31.8142L34.853 41.631C35.2297 40.5063 36.2802 39.75 37.4627 39.75Z" fill="white"/>
<path d="M77.5 35.317V29.5173L50.869 20.6403C50.2804 20.4433 49.6424 20.452 49.0595 20.665L22.5 30.323V36.175L50.0412 26.1595L77.5 35.317Z" fill="white"/>
<defs>
<filter id="filter0_d_44_3" x="0" y="0" width="100" height="100" filterUnits="userSpaceOnUse" color-interpolation-filters="sRGB">
<feFlood flood-opacity="0" result="BackgroundImageFix"/>
<feColorMatrix in="SourceAlpha" type="matrix" values="0 0 0 0 0 0 0 0 0 0 0 0 0 0 0 0 0 0 127 0" result="hardAlpha"/>
<feMorphology radius="1" operator="dilate" in="SourceAlpha" result="effect1_dropShadow_44_3"/>
<feOffset dy="2"/>
<feGaussianBlur stdDeviation="2"/>
<feComposite in2="hardAlpha" operator="out"/>
<feColorMatrix type="matrix" values="0 0 0 0 0 0 0 0 0 0 0 0 0 0 0 0 0 0 0.25 0"/>
<feBlend mode="normal" in2="BackgroundImageFix" result="effect1_dropShadow_44_3"/>
<feBlend mode="normal" in="SourceGraphic" in2="effect1_dropShadow_44_3" result="shape"/>
</filter>
</defs>
</svg>
