<svg width="20" height="20" viewBox="0 0 20 20" fill="none" xmlns="http://www.w3.org/2000/svg">
<path d="M16.3585 3.04166C16.2617 2.96334 16.1486 2.90772 16.0274 2.87888C15.9063 2.85004 15.7802 2.84871 15.6585 2.87499C14.768 3.06161 13.8488 3.06399 12.9574 2.88198C12.0659 2.69997 11.2212 2.33742 10.4752 1.81666C10.3357 1.71989 10.1699 1.66803 10.0002 1.66803C9.83039 1.66803 9.66466 1.71989 9.52517 1.81666C8.77913 2.33742 7.9344 2.69997 7.04297 2.88198C6.15155 3.06399 5.2323 3.06161 4.34183 2.87499C4.22012 2.84871 4.09406 2.85004 3.97292 2.87888C3.85178 2.90772 3.73865 2.96334 3.64183 3.04166C3.54515 3.12009 3.46727 3.21919 3.41391 3.33167C3.36055 3.44415 3.33308 3.56716 3.3335 3.69166V9.89999C3.33276 11.0948 3.61748 12.2725 4.16395 13.335C4.71041 14.3975 5.50282 15.314 6.47517 16.0083L9.51683 18.175C9.65797 18.2755 9.82691 18.3295 10.0002 18.3295C10.1734 18.3295 10.3424 18.2755 10.4835 18.175L13.5252 16.0083C14.4975 15.314 15.2899 14.3975 15.8364 13.335C16.3829 12.2725 16.6676 11.0948 16.6668 9.89999V3.69166C16.6673 3.56716 16.6398 3.44415 16.5864 3.33167C16.5331 3.21919 16.4552 3.12009 16.3585 3.04166ZM15.0002 9.89999C15.0008 10.829 14.7796 11.7446 14.3549 12.5708C13.9302 13.397 13.3143 14.1099 12.5585 14.65L10.0002 16.475L7.44183 14.65C6.68603 14.1099 6.07015 13.397 5.64546 12.5708C5.22076 11.7446 4.99953 10.829 5.00017 9.89999V4.64999C6.74719 4.79952 8.49687 4.39418 10.0002 3.49166C11.5035 4.39418 13.2531 4.79952 15.0002 4.64999V9.89999ZM11.2835 7.99166L9.04183 10.2417L8.30017 9.49166C8.14325 9.33474 7.93042 9.24658 7.7085 9.24658C7.48658 9.24658 7.27375 9.33474 7.11683 9.49166C6.95991 9.64858 6.87176 9.86141 6.87176 10.0833C6.87176 10.3052 6.95991 10.5181 7.11683 10.675L8.45017 12.0083C8.52764 12.0864 8.6198 12.1484 8.72135 12.1907C8.8229 12.233 8.93182 12.2548 9.04183 12.2548C9.15184 12.2548 9.26076 12.233 9.36231 12.1907C9.46386 12.1484 9.55603 12.0864 9.6335 12.0083L12.5002 9.16666C12.6571 9.00974 12.7452 8.79691 12.7452 8.57499C12.7452 8.35307 12.6571 8.14025 12.5002 7.98333C12.3432 7.82641 12.1304 7.73825 11.9085 7.73825C11.6866 7.73825 11.4738 7.82641 11.3168 7.98333L11.2835 7.99166Z" fill="#5B5575"/>
</svg>
