<svg width="26" height="26" viewBox="0 0 26 26" fill="none" xmlns="http://www.w3.org/2000/svg">
<path d="M20.3125 10.5625C20.3125 8.6231 19.5421 6.76314 18.1707 5.39178C16.7994 4.02042 14.9394 3.25 13 3.25C11.0606 3.25 9.20064 4.02042 7.82928 5.39178C6.45792 6.76314 5.6875 8.6231 5.6875 10.5625C5.6875 13.5623 8.08763 17.472 13 22.1553C17.9124 17.472 20.3125 13.5623 20.3125 10.5625ZM13 24.375C7.04112 18.9589 4.0625 14.3536 4.0625 10.5625C4.0625 8.19213 5.00413 5.91884 6.68023 4.24273C8.35634 2.56663 10.6296 1.625 13 1.625C15.3704 1.625 17.6437 2.56663 19.3198 4.24273C20.9959 5.91884 21.9375 8.19213 21.9375 10.5625C21.9375 14.3536 18.9589 18.9589 13 24.375Z" fill="white"/>
<path d="M13 11.375C13.431 11.375 13.8443 11.2038 14.149 10.899C14.4538 10.5943 14.625 10.181 14.625 9.75C14.625 9.31902 14.4538 8.9057 14.149 8.60095C13.8443 8.29621 13.431 8.125 13 8.125C12.569 8.125 12.1557 8.29621 11.851 8.60095C11.5462 8.9057 11.375 9.31902 11.375 9.75C11.375 10.181 11.5462 10.5943 11.851 10.899C12.1557 11.2038 12.569 11.375 13 11.375ZM13 13C12.138 13 11.3114 12.6576 10.7019 12.0481C10.0924 11.4386 9.75 10.612 9.75 9.75C9.75 8.88805 10.0924 8.0614 10.7019 7.4519C11.3114 6.84241 12.138 6.5 13 6.5C13.862 6.5 14.6886 6.84241 15.2981 7.4519C15.9076 8.0614 16.25 8.88805 16.25 9.75C16.25 10.612 15.9076 11.4386 15.2981 12.0481C14.6886 12.6576 13.862 13 13 13ZM21.775 17.875L24.375 24.375H17.0625V22.75H8.9375V24.375H1.625L4.225 17.875H21.775ZM20.0249 17.875H5.97513L4.02513 22.75H21.9749L20.0249 17.875Z" fill="white"/>
</svg>
