<svg width="33" height="27" viewBox="0 0 33 27" fill="none" xmlns="http://www.w3.org/2000/svg">
<path d="M9.075 15.1875C11.3489 15.1875 13.2 13.2943 13.2 10.9688C13.2 8.64316 11.3489 6.75 9.075 6.75C6.80109 6.75 4.95 8.64316 4.95 10.9688C4.95 13.2943 6.80109 15.1875 9.075 15.1875ZM28.05 6.75H15.675C15.2212 6.75 14.85 7.12969 14.85 7.59375V16.875H3.3V2.53125C3.3 2.06508 2.93081 1.6875 2.475 1.6875H0.825C0.369342 1.6875 0 2.06508 0 2.53125V24.4688C0 24.9328 0.369342 25.3125 0.825 25.3125H2.475C2.93081 25.3125 3.3 24.9328 3.3 24.4688V21.9375H29.7V24.4688C29.7 24.9348 30.0693 25.3125 30.525 25.3125H32.175C32.6307 25.3125 33 24.9348 33 24.4688V11.8125C33 8.97012 30.7828 6.75 28.05 6.75Z" fill="#EF233C"/>
</svg>
