<svg width="28" height="28" viewBox="0 0 28 28" fill="none" xmlns="http://www.w3.org/2000/svg">
<path d="M12.2348 5.12986C13.0535 5.26455 13.7978 5.68572 14.3348 6.31823C14.8718 6.95075 15.1666 7.75347 15.1666 8.58319V10.9165H8.16665V8.58319C8.16665 7.37219 8.78265 6.30352 9.71831 5.67586C9.38229 5.37666 8.96694 5.18099 8.52227 5.11242C8.07761 5.04385 7.6226 5.10529 7.21205 5.28936C6.80151 5.47343 6.45293 5.77227 6.20832 6.14988C5.9637 6.52749 5.83347 6.96777 5.83331 7.41769V14.4177H24.5C24.8094 14.4177 25.1061 14.5406 25.3249 14.7594C25.5437 14.9782 25.6666 15.2749 25.6666 15.5844C25.6666 15.8938 25.5437 16.1905 25.3249 16.4093C25.1061 16.6281 24.8094 16.751 24.5 16.751V17.9177C24.4999 19.3654 24.0511 20.7775 23.2154 21.9596C22.3797 23.1418 21.1981 24.0358 19.8333 24.5187V25.0834C19.8333 25.3928 19.7104 25.6895 19.4916 25.9083C19.2728 26.1271 18.9761 26.25 18.6666 26.25C18.3572 26.25 18.0605 26.1271 17.8417 25.9083C17.6229 25.6895 17.5 25.3928 17.5 25.0834V24.9177H10.5V25.0834C10.5 25.3928 10.3771 25.6895 10.1583 25.9083C9.93948 26.1271 9.64273 26.25 9.33331 26.25C9.02389 26.25 8.72715 26.1271 8.50836 25.9083C8.28956 25.6895 8.16665 25.3928 8.16665 25.0834V24.5187C6.80185 24.0358 5.62027 23.1418 4.78455 21.9596C3.94882 20.7775 3.50004 19.3654 3.49998 17.9177V16.751C3.19056 16.751 2.89381 16.6281 2.67502 16.4093C2.45623 16.1905 2.33331 15.8938 2.33331 15.5844C2.33331 15.2749 2.45623 14.9782 2.67502 14.7594C2.89381 14.5406 3.19056 14.4177 3.49998 14.4177V7.41769C3.49993 6.38576 3.84192 5.38291 4.47246 4.56602C5.10299 3.74913 5.98651 3.16427 6.9848 2.90293C7.98309 2.64159 9.03985 2.71851 9.98978 3.12165C10.9397 3.5248 11.7292 4.23144 12.2348 5.13102V5.12986Z" fill="#EF233C"/>
</svg>
