<svg width="100" height="100" viewBox="0 0 100 100" fill="none" xmlns="http://www.w3.org/2000/svg">
<g filter="url(#filter0_d_44_6)">
<circle cx="50" cy="48" r="45" fill="#EF233C"/>
</g>
<path d="M62.7515 60.5L60.2464 65.2106L72.5119 63.2053C70.0367 61.9638 66.686 61.0766 62.7515 60.5ZM31.1551 61.527C25.4741 63.0253 21.875 65.4803 21.875 69.1268C21.8773 69.9118 22.0489 70.6871 22.3781 71.3998L42.0633 68.1823L31.1551 61.527ZM76.6635 67L49.266 71.4655L56.4914 79.6854C68.3565 78.6226 77.125 74.8325 77.125 69.1268C77.125 68.3663 76.9612 67.6597 76.6635 67.0006V67ZM44.6367 72.2358L26.1247 75.2615C31.0179 78.2931 39.6544 80 49.5 80C50.0967 80 50.6798 79.9831 51.2673 79.9708L44.6367 72.2358Z" fill="white"/>
<path d="M49.5013 15C38.9063 15 30.2125 23.6658 30.2125 34.2368C30.2125 38.3331 31.5236 42.1492 33.7362 45.2764L33.6699 45.173L46.1882 66.8122L46.2402 66.8817C46.7342 67.5259 47.2152 68.0335 47.7814 68.4079C48.3469 68.7817 49.0489 69.0066 49.7372 68.9377C51.1139 68.7999 51.9576 67.8274 52.7578 66.7426L52.8 66.6861L66.6028 43.1951L66.6112 43.1795C66.9349 42.5945 67.1735 41.9997 67.3763 41.4199C68.3073 39.1395 68.7864 36.6999 68.7868 34.2368C68.7874 23.6658 60.0969 15 49.5019 15H49.5013ZM49.5013 17.6975C58.6273 17.6975 66.0893 25.1433 66.0893 34.2368C66.0893 36.4253 65.6551 38.5138 64.8692 40.4313L64.8549 40.465L64.8432 40.4989C64.6677 41.002 64.4773 41.4648 64.2511 41.8743L50.5653 65.1638C49.9335 66.0049 49.472 66.2532 49.4681 66.2538C49.4662 66.2538 49.459 66.2831 49.2705 66.1576C49.0879 66.0374 48.7765 65.7403 48.4138 65.2736L35.9728 43.769L35.9384 43.7196C34.0326 41.0254 32.91 37.7598 32.91 34.2374C32.91 25.1439 40.3753 17.6982 49.5013 17.6982V17.6975ZM49.5013 23.3824C43.4784 23.3824 38.6183 28.2249 38.6183 34.2368C38.6183 40.2486 43.4784 45.0911 49.5013 45.0911C55.5235 45.0911 60.3823 40.2486 60.3823 34.2361C60.3823 28.2249 55.5242 23.3824 49.5013 23.3824ZM49.5013 26.0799C54.0968 26.0799 57.6848 29.6595 57.6848 34.2368C57.6848 38.8141 54.0974 42.3936 49.5013 42.3936C44.9045 42.3936 41.3158 38.8134 41.3158 34.2361C41.3158 29.6601 44.9045 26.0799 49.5013 26.0799Z" fill="white"/>
<defs>
<filter id="filter0_d_44_6" x="0" y="0" width="100" height="100" filterUnits="userSpaceOnUse" color-interpolation-filters="sRGB">
<feFlood flood-opacity="0" result="BackgroundImageFix"/>
<feColorMatrix in="SourceAlpha" type="matrix" values="0 0 0 0 0 0 0 0 0 0 0 0 0 0 0 0 0 0 127 0" result="hardAlpha"/>
<feMorphology radius="1" operator="dilate" in="SourceAlpha" result="effect1_dropShadow_44_6"/>
<feOffset dy="2"/>
<feGaussianBlur stdDeviation="2"/>
<feComposite in2="hardAlpha" operator="out"/>
<feColorMatrix type="matrix" values="0 0 0 0 0 0 0 0 0 0 0 0 0 0 0 0 0 0 0.25 0"/>
<feBlend mode="normal" in2="BackgroundImageFix" result="effect1_dropShadow_44_6"/>
<feBlend mode="normal" in="SourceGraphic" in2="effect1_dropShadow_44_6" result="shape"/>
</filter>
</defs>
</svg>
