<svg width="100" height="100" viewBox="0 0 100 100" fill="none" xmlns="http://www.w3.org/2000/svg">
<g filter="url(#filter0_d_44_5)">
<circle cx="50" cy="48" r="45" fill="#EF233C"/>
</g>
<path d="M35.0469 73.7812C35.0469 74.2912 34.8957 74.7896 34.6124 75.2136C34.3291 75.6376 33.9264 75.968 33.4554 76.1631C32.9843 76.3583 32.4659 76.4093 31.9658 76.3098C31.4657 76.2104 31.0063 75.9648 30.6457 75.6043C30.2852 75.2437 30.0396 74.7843 29.9402 74.2842C29.8407 73.7841 29.8917 73.2657 30.0869 72.7946C30.282 72.3236 30.6125 71.9209 31.0364 71.6376C31.4604 71.3543 31.9588 71.2031 32.4688 71.2031C33.1525 71.2031 33.8083 71.4747 34.2918 71.9582C34.7753 72.4417 35.0469 73.0975 35.0469 73.7812ZM39.6875 63.9844C39.1776 63.9844 38.6791 64.1356 38.2552 64.4189C37.8312 64.7022 37.5008 65.1048 37.3056 65.5759C37.1105 66.047 37.0594 66.5654 37.1589 67.0655C37.2584 67.5656 37.5039 68.025 37.8645 68.3855C38.225 68.7461 38.6844 68.9916 39.1845 69.0911C39.6846 69.1906 40.203 69.1395 40.6741 68.9444C41.1452 68.7492 41.5478 68.4188 41.8311 67.9948C42.1144 67.5709 42.2656 67.0724 42.2656 66.5625C42.2656 65.8787 41.994 65.223 41.5105 64.7395C41.027 64.256 40.3713 63.9844 39.6875 63.9844ZM24.2188 62.9531C23.7088 62.9531 23.2104 63.1043 22.7864 63.3876C22.3625 63.6709 22.032 64.0736 21.8369 64.5446C21.6417 65.0157 21.5907 65.5341 21.6902 66.0342C21.7896 66.5343 22.0352 66.9937 22.3957 67.3543C22.7563 67.7148 23.2157 67.9604 23.7158 68.0598C24.2159 68.1593 24.7343 68.1083 25.2054 67.9131C25.6764 67.718 26.0791 67.3876 26.3624 66.9636C26.6457 66.5396 26.7969 66.0412 26.7969 65.5312C26.7969 64.8475 26.5253 64.1917 26.0418 63.7082C25.5583 63.2247 24.9025 62.9531 24.2188 62.9531ZM34.0156 58.3125C34.0156 57.8026 33.8644 57.3041 33.5811 56.8802C33.2978 56.4562 32.8952 56.1258 32.4241 55.9306C31.953 55.7355 31.4346 55.6844 30.9345 55.7839C30.4344 55.8834 29.975 56.1289 29.6145 56.4895C29.2539 56.85 29.0084 57.3094 28.9089 57.8095C28.8094 58.3096 28.8605 58.828 29.0556 59.2991C29.2508 59.7702 29.5812 60.1728 30.0052 60.4561C30.4291 60.7394 30.9276 60.8906 31.4375 60.8906C32.1213 60.8906 32.777 60.619 33.2605 60.1355C33.744 59.652 34.0156 58.9963 34.0156 58.3125ZM82.4844 25.3125C82.4844 25.7228 82.3214 26.1162 82.0313 26.4063C81.7412 26.6964 81.3478 26.8594 80.9375 26.8594H73.5383C73.4023 26.8613 73.2725 26.9169 73.1773 27.0141L65.8813 34.3102L60.4414 67.0008C60.3297 67.6554 60.0395 68.2666 59.6029 68.7669C59.1662 69.2673 58.5999 69.6375 57.9664 69.8367C57.6072 69.9488 57.234 70.0095 56.8578 70.0172C56.3857 70.0147 55.9188 69.9176 55.4849 69.7317C55.0509 69.5457 54.6586 69.2746 54.3313 68.9344L29.0398 43.6687C28.5733 43.2022 28.2445 42.616 28.0898 41.9746C27.9352 41.3332 27.9606 40.6615 28.1633 40.0336C28.3625 39.4001 28.7327 38.8338 29.2331 38.3971C29.7334 37.9605 30.3446 37.6703 30.9992 37.5586L63.6898 32.1188L70.9859 24.8227C71.6676 24.1528 72.5827 23.7738 73.5383 23.7656H80.9375C81.3478 23.7656 81.7412 23.9286 82.0313 24.2187C82.3214 24.5088 82.4844 24.9022 82.4844 25.3125ZM62.5555 35.4445L31.5148 40.6266C31.4221 40.6397 31.3348 40.6779 31.2621 40.7369C31.1894 40.7959 31.1342 40.8737 31.1023 40.9617C31.0779 41.0556 31.0769 41.1541 31.0993 41.2485C31.1218 41.3429 31.1671 41.4303 31.2313 41.5031L56.5227 66.7687C56.5888 66.835 56.6717 66.882 56.7626 66.9048C56.8534 66.9275 56.9487 66.925 57.0383 66.8977C57.1263 66.8658 57.2041 66.8106 57.2631 66.7379C57.3222 66.6652 57.3603 66.5779 57.3734 66.4852L62.5555 35.4445Z" fill="white"/>
<defs>
<filter id="filter0_d_44_5" x="0" y="0" width="100" height="100" filterUnits="userSpaceOnUse" color-interpolation-filters="sRGB">
<feFlood flood-opacity="0" result="BackgroundImageFix"/>
<feColorMatrix in="SourceAlpha" type="matrix" values="0 0 0 0 0 0 0 0 0 0 0 0 0 0 0 0 0 0 127 0" result="hardAlpha"/>
<feMorphology radius="1" operator="dilate" in="SourceAlpha" result="effect1_dropShadow_44_5"/>
<feOffset dy="2"/>
<feGaussianBlur stdDeviation="2"/>
<feComposite in2="hardAlpha" operator="out"/>
<feColorMatrix type="matrix" values="0 0 0 0 0 0 0 0 0 0 0 0 0 0 0 0 0 0 0.25 0"/>
<feBlend mode="normal" in2="BackgroundImageFix" result="effect1_dropShadow_44_5"/>
<feBlend mode="normal" in="SourceGraphic" in2="effect1_dropShadow_44_5" result="shape"/>
</filter>
</defs>
</svg>
