<svg width="26" height="26" viewBox="0 0 26 26" fill="none" xmlns="http://www.w3.org/2000/svg">
<path d="M14.0833 8.66667C14.9453 8.66667 15.7719 9.00908 16.3814 9.61857C16.9909 10.2281 17.3333 11.0547 17.3333 11.9167C17.3333 12.204 17.4475 12.4795 17.6506 12.6827C17.8538 12.8859 18.1293 13 18.4167 13C18.704 13 18.9795 12.8859 19.1827 12.6827C19.3859 12.4795 19.5 12.204 19.5 11.9167C19.5 10.4801 18.9293 9.10233 17.9135 8.0865C16.8977 7.07068 15.5199 6.5 14.0833 6.5C13.796 6.5 13.5205 6.61414 13.3173 6.8173C13.1141 7.02047 13 7.29602 13 7.58333C13 7.87065 13.1141 8.1462 13.3173 8.34937C13.5205 8.55253 13.796 8.66667 14.0833 8.66667Z" fill="white"/>
<path d="M14.0834 4.33341C16.0946 4.33341 18.0235 5.13237 19.4456 6.55452C20.8678 7.97667 21.6667 9.90552 21.6667 11.9167C21.6667 12.2041 21.7809 12.4796 21.984 12.6828C22.1872 12.8859 22.4628 13.0001 22.7501 13.0001C23.0374 13.0001 23.3129 12.8859 23.5161 12.6828C23.7193 12.4796 23.8334 12.2041 23.8334 11.9167C23.8334 9.33089 22.8062 6.85094 20.9777 5.02246C19.1492 3.19398 16.6693 2.16675 14.0834 2.16675C13.7961 2.16675 13.5205 2.28088 13.3174 2.48405C13.1142 2.68721 13.0001 2.96276 13.0001 3.25008C13.0001 3.5374 13.1142 3.81295 13.3174 4.01611C13.5205 4.21928 13.7961 4.33341 14.0834 4.33341ZM23.5626 17.2359C23.503 17.062 23.4001 16.9061 23.2637 16.7829C23.1272 16.6597 22.9617 16.5733 22.7826 16.5317L16.2826 15.0476C16.1061 15.0076 15.9225 15.0124 15.7484 15.0616C15.5743 15.1108 15.4153 15.2028 15.2859 15.3292C15.1342 15.4701 15.1234 15.4809 14.4192 16.8242C12.0827 15.7476 10.2105 13.8677 9.14341 11.5267C10.5192 10.8334 10.5301 10.8334 10.6709 10.6709C10.7973 10.5415 10.8894 10.3825 10.9386 10.2084C10.9878 10.0343 10.9926 9.85068 10.9526 9.67425L9.46841 3.25008C9.42686 3.071 9.34043 2.90544 9.21724 2.76899C9.09405 2.63253 8.93816 2.52967 8.76425 2.47008C8.51125 2.37972 8.25 2.31441 7.98425 2.27508C7.71044 2.21159 7.43103 2.17531 7.15008 2.16675C5.82842 2.16675 4.56089 2.69178 3.62633 3.62633C2.69178 4.56089 2.16675 5.82842 2.16675 7.15008C2.17248 11.573 3.93203 15.8132 7.05951 18.9406C10.187 22.0681 14.4271 23.8277 18.8501 23.8334C19.5045 23.8334 20.1525 23.7045 20.7571 23.4541C21.3617 23.2036 21.9111 22.8366 22.3738 22.3738C22.8366 21.9111 23.2036 21.3617 23.4541 20.7571C23.7045 20.1525 23.8334 19.5045 23.8334 18.8501C23.8337 18.5743 23.812 18.299 23.7684 18.0267C23.7229 17.7577 23.654 17.4931 23.5626 17.2359ZM18.8501 21.6667C15.0009 21.6639 11.3102 20.1335 8.58842 17.4117C5.86664 14.69 4.33628 10.9993 4.33341 7.15008C4.33627 6.40393 4.63394 5.68916 5.16155 5.16155C5.68916 4.63394 6.40393 4.33627 7.15008 4.33341H7.50758L8.66675 9.36008L8.08175 9.66341C7.15008 10.1509 6.41341 10.5409 6.80341 11.3859C7.43849 13.1838 8.46608 14.8176 9.81154 16.1687C11.157 17.5198 12.7865 18.5542 14.5817 19.1967C15.4917 19.5651 15.8492 18.8826 16.3367 17.9401L16.6509 17.3442L21.6667 18.4926V18.8501C21.6639 19.5962 21.3662 20.311 20.8386 20.8386C20.311 21.3662 19.5962 21.6639 18.8501 21.6667Z" fill="white"/>
</svg>
