<svg width="27" height="27" viewBox="0 0 27 27" fill="none" xmlns="http://www.w3.org/2000/svg">
<path d="M18.4091 13.4999V9.81812H20.8636V13.4999H23.9318V8.59084H25.7727L19.6363 3.06812L13.5 8.59084H15.3409V13.4999H18.4091Z" fill="#EF233C"/>
<path d="M3.375 3.375V23.625H23.625V16.0312H10.9688V3.375H3.375ZM5.0625 5.0625H9.28125V6.75H6.75V8.4375H9.28125V10.125H6.75V11.8125H9.28125V13.5H6.75V15.1875H9.28125V16.5257L5.0625 20.7444V5.0625ZM10.4743 17.7188H11.8125V20.25H13.5V17.7188H15.1875V20.25H16.875V17.7188H18.5625V20.25H20.25V17.7188H21.9375V21.9375H6.25556L10.4743 17.7188Z" fill="#EF233C"/>
</svg>
