<svg width="100" height="100" viewBox="0 0 100 100" fill="none" xmlns="http://www.w3.org/2000/svg">
<g filter="url(#filter0_d_44_4)">
<circle cx="50" cy="48" r="45" fill="#EF233C"/>
</g>
<path d="M61.55 24.9C63.6445 24.8997 65.6608 25.6961 67.1898 27.1277C68.7188 28.5592 69.6461 30.5188 69.7835 32.6088L69.8 33.15V41.565C71.5682 41.9267 73.1692 42.858 74.3577 44.2163C75.5461 45.5746 76.2566 47.2851 76.3802 49.0857L76.4 49.65V69.45C76.4007 69.8623 76.2471 70.26 75.9693 70.5647C75.6915 70.8694 75.3097 71.0591 74.8991 71.0963C74.4884 71.1336 74.0787 71.0157 73.7506 70.766C73.4225 70.5163 73.1998 70.1528 73.1264 69.747L73.1 69.45V61.2H26.9V69.45C26.9007 69.8623 26.7471 70.26 26.4693 70.5647C26.1915 70.8694 25.8097 71.0591 25.3991 71.0963C24.9884 71.1336 24.5787 71.0157 24.2506 70.766C23.9225 70.5163 23.6998 70.1528 23.6264 69.747L23.6 69.45V49.65C23.5996 47.7481 24.2563 45.9045 25.459 44.4312C26.6617 42.9579 28.3365 41.9454 30.2 41.565V33.15C30.1997 31.0555 30.996 29.0392 32.4276 27.5102C33.8592 25.9812 35.8187 25.0539 37.9088 24.9165L38.45 24.9H61.55ZM68.15 44.7H31.85C30.62 44.7 29.434 45.1579 28.5232 45.9845C27.6124 46.8112 27.042 47.9473 26.9231 49.1715L26.9 49.65V57.9H73.1V49.65C73.1 48.42 72.6421 47.2341 71.8155 46.3233C70.9888 45.4125 69.8527 44.842 68.6285 44.7231L68.15 44.7ZM61.55 28.2H38.45C37.2195 28.2001 36.0331 28.6585 35.1222 29.4858C34.2113 30.3131 33.6412 31.45 33.5231 32.6748L33.5 33.15V41.4H36.8V39.75C36.8 39.3124 36.9738 38.8927 37.2832 38.5833C37.5927 38.2739 38.0124 38.1 38.45 38.1H46.7C47.1376 38.1 47.5573 38.2739 47.8667 38.5833C48.1761 38.8927 48.35 39.3124 48.35 39.75V41.4H51.65V39.75C51.65 39.3124 51.8238 38.8927 52.1332 38.5833C52.4427 38.2739 52.8624 38.1 53.3 38.1H61.55C61.9876 38.1 62.4073 38.2739 62.7167 38.5833C63.0261 38.8927 63.2 39.3124 63.2 39.75V41.4H66.5V33.15C66.5 31.92 66.0421 30.7341 65.2155 29.8233C64.3888 28.9125 63.2527 28.342 62.0285 28.2231L61.55 28.2Z" fill="white"/>
<defs>
<filter id="filter0_d_44_4" x="0" y="0" width="100" height="100" filterUnits="userSpaceOnUse" color-interpolation-filters="sRGB">
<feFlood flood-opacity="0" result="BackgroundImageFix"/>
<feColorMatrix in="SourceAlpha" type="matrix" values="0 0 0 0 0 0 0 0 0 0 0 0 0 0 0 0 0 0 127 0" result="hardAlpha"/>
<feMorphology radius="1" operator="dilate" in="SourceAlpha" result="effect1_dropShadow_44_4"/>
<feOffset dy="2"/>
<feGaussianBlur stdDeviation="2"/>
<feComposite in2="hardAlpha" operator="out"/>
<feColorMatrix type="matrix" values="0 0 0 0 0 0 0 0 0 0 0 0 0 0 0 0 0 0 0.25 0"/>
<feBlend mode="normal" in2="BackgroundImageFix" result="effect1_dropShadow_44_4"/>
<feBlend mode="normal" in="SourceGraphic" in2="effect1_dropShadow_44_4" result="shape"/>
</filter>
</defs>
</svg>
