<svg width="114" height="24" viewBox="0 0 114 24" fill="none" xmlns="http://www.w3.org/2000/svg">
<path d="M29.864 18L27.4 13.648H26.344V18H24.104V6.832H28.296C29.16 6.832 29.896 6.98667 30.504 7.296C31.112 7.59467 31.5653 8.00533 31.864 8.528C32.1733 9.04 32.328 9.616 32.328 10.256C32.328 10.992 32.1147 11.6587 31.688 12.256C31.2613 12.8427 30.6267 13.248 29.784 13.472L32.456 18H29.864ZM26.344 11.968H28.216C28.824 11.968 29.2773 11.824 29.576 11.536C29.8747 11.2373 30.024 10.8267 30.024 10.304C30.024 9.792 29.8747 9.39733 29.576 9.12C29.2773 8.832 28.824 8.688 28.216 8.688H26.344V11.968ZM42.594 13.376C42.594 13.696 42.5727 13.984 42.53 14.24H36.05C36.1033 14.88 36.3273 15.3813 36.722 15.744C37.1167 16.1067 37.602 16.288 38.178 16.288C39.01 16.288 39.602 15.9307 39.954 15.216H42.37C42.114 16.0693 41.6233 16.7733 40.898 17.328C40.1727 17.872 39.282 18.144 38.226 18.144C37.3727 18.144 36.6047 17.9573 35.922 17.584C35.25 17.2 34.722 16.6613 34.338 15.968C33.9647 15.2747 33.778 14.4747 33.778 13.568C33.778 12.6507 33.9647 11.8453 34.338 11.152C34.7113 10.4587 35.234 9.92533 35.906 9.552C36.578 9.17867 37.3513 8.992 38.226 8.992C39.0687 8.992 39.8207 9.17333 40.482 9.536C41.154 9.89867 41.6713 10.416 42.034 11.088C42.4073 11.7493 42.594 12.512 42.594 13.376ZM40.274 12.736C40.2633 12.16 40.0553 11.7013 39.65 11.36C39.2447 11.008 38.7487 10.832 38.162 10.832C37.6073 10.832 37.138 11.0027 36.754 11.344C36.3807 11.6747 36.1513 12.1387 36.066 12.736H40.274ZM47.621 18.144C46.8957 18.144 46.245 18.016 45.669 17.76C45.093 17.4933 44.6343 17.136 44.293 16.688C43.9623 16.24 43.781 15.744 43.749 15.2H46.005C46.0477 15.5413 46.213 15.824 46.501 16.048C46.7997 16.272 47.1677 16.384 47.605 16.384C48.0317 16.384 48.3623 16.2987 48.597 16.128C48.8423 15.9573 48.965 15.7387 48.965 15.472C48.965 15.184 48.8157 14.9707 48.517 14.832C48.229 14.6827 47.765 14.5227 47.125 14.352C46.4637 14.192 45.9197 14.0267 45.493 13.856C45.077 13.6853 44.7143 13.424 44.405 13.072C44.1063 12.72 43.957 12.2453 43.957 11.648C43.957 11.1573 44.0957 10.7093 44.373 10.304C44.661 9.89867 45.0663 9.57867 45.589 9.344C46.1223 9.10933 46.7463 8.992 47.461 8.992C48.517 8.992 49.3597 9.25867 49.989 9.792C50.6183 10.3147 50.965 11.024 51.029 11.92H48.885C48.853 11.568 48.7037 11.2907 48.437 11.088C48.181 10.8747 47.8343 10.768 47.397 10.768C46.9917 10.768 46.677 10.8427 46.453 10.992C46.2397 11.1413 46.133 11.3493 46.133 11.616C46.133 11.9147 46.2823 12.144 46.581 12.304C46.8797 12.4533 47.3437 12.608 47.973 12.768C48.613 12.928 49.141 13.0933 49.557 13.264C49.973 13.4347 50.3303 13.7013 50.629 14.064C50.9383 14.416 51.0983 14.8853 51.109 15.472C51.109 15.984 50.965 16.4427 50.677 16.848C50.3997 17.2533 49.9943 17.5733 49.461 17.808C48.9383 18.032 48.325 18.144 47.621 18.144ZM54.0838 8.08C53.6891 8.08 53.3584 7.95733 53.0918 7.712C52.8358 7.456 52.7078 7.14133 52.7078 6.768C52.7078 6.39467 52.8358 6.08533 53.0918 5.84C53.3584 5.584 53.6891 5.456 54.0838 5.456C54.4784 5.456 54.8038 5.584 55.0598 5.84C55.3264 6.08533 55.4598 6.39467 55.4598 6.768C55.4598 7.14133 55.3264 7.456 55.0598 7.712C54.8038 7.95733 54.4784 8.08 54.0838 8.08ZM55.1878 9.136V18H52.9478V9.136H55.1878ZM56.8249 13.536C56.8249 12.64 57.0009 11.8453 57.3529 11.152C57.7155 10.4587 58.2062 9.92533 58.8249 9.552C59.4435 9.17867 60.1315 8.992 60.8889 8.992C61.4649 8.992 62.0142 9.12 62.5369 9.376C63.0595 9.62133 63.4755 9.952 63.7849 10.368V6.16H66.0569V18H63.7849V16.688C63.5075 17.1253 63.1182 17.4773 62.6169 17.744C62.1155 18.0107 61.5342 18.144 60.8729 18.144C60.1262 18.144 59.4435 17.952 58.8249 17.568C58.2062 17.184 57.7155 16.6453 57.3529 15.952C57.0009 15.248 56.8249 14.4427 56.8249 13.536ZM63.8009 13.568C63.8009 13.024 63.6942 12.56 63.4809 12.176C63.2675 11.7813 62.9795 11.4827 62.6169 11.28C62.2542 11.0667 61.8649 10.96 61.4489 10.96C61.0329 10.96 60.6489 11.0613 60.2969 11.264C59.9449 11.4667 59.6569 11.7653 59.4329 12.16C59.2195 12.544 59.1129 13.0027 59.1129 13.536C59.1129 14.0693 59.2195 14.5387 59.4329 14.944C59.6569 15.3387 59.9449 15.6427 60.2969 15.856C60.6595 16.0693 61.0435 16.176 61.4489 16.176C61.8649 16.176 62.2542 16.0747 62.6169 15.872C62.9795 15.6587 63.2675 15.36 63.4809 14.976C63.6942 14.5813 63.8009 14.112 63.8009 13.568ZM76.4846 13.376C76.4846 13.696 76.4633 13.984 76.4206 14.24H69.9406C69.994 14.88 70.218 15.3813 70.6126 15.744C71.0073 16.1067 71.4926 16.288 72.0686 16.288C72.9006 16.288 73.4926 15.9307 73.8446 15.216H76.2606C76.0046 16.0693 75.514 16.7733 74.7886 17.328C74.0633 17.872 73.1726 18.144 72.1166 18.144C71.2633 18.144 70.4953 17.9573 69.8126 17.584C69.1406 17.2 68.6126 16.6613 68.2286 15.968C67.8553 15.2747 67.6686 14.4747 67.6686 13.568C67.6686 12.6507 67.8553 11.8453 68.2286 11.152C68.602 10.4587 69.1246 9.92533 69.7966 9.552C70.4686 9.17867 71.242 8.992 72.1166 8.992C72.9593 8.992 73.7113 9.17333 74.3726 9.536C75.0446 9.89867 75.562 10.416 75.9246 11.088C76.298 11.7493 76.4846 12.512 76.4846 13.376ZM74.1646 12.736C74.154 12.16 73.946 11.7013 73.5406 11.36C73.1353 11.008 72.6393 10.832 72.0526 10.832C71.498 10.832 71.0286 11.0027 70.6446 11.344C70.2713 11.6747 70.042 12.1387 69.9566 12.736H74.1646ZM83.0316 9.008C84.0876 9.008 84.941 9.344 85.5916 10.016C86.2423 10.6773 86.5676 11.6053 86.5676 12.8V18H84.3276V13.104C84.3276 12.4 84.1516 11.8613 83.7996 11.488C83.4476 11.104 82.9676 10.912 82.3596 10.912C81.741 10.912 81.2503 11.104 80.8876 11.488C80.5356 11.8613 80.3596 12.4 80.3596 13.104V18H78.1196V9.136H80.3596V10.24C80.6583 9.856 81.037 9.55733 81.4956 9.344C81.965 9.12 82.477 9.008 83.0316 9.008ZM91.3058 10.976V15.264C91.3058 15.5627 91.3751 15.7813 91.5138 15.92C91.6631 16.048 91.9084 16.112 92.2498 16.112H93.2898V18H91.8818C89.9938 18 89.0498 17.0827 89.0498 15.248V10.976H87.9938V9.136H89.0498V6.944H91.3058V9.136H93.2898V10.976H91.3058ZM96.0369 8.08C95.6422 8.08 95.3115 7.95733 95.0449 7.712C94.7889 7.456 94.6609 7.14133 94.6609 6.768C94.6609 6.39467 94.7889 6.08533 95.0449 5.84C95.3115 5.584 95.6422 5.456 96.0369 5.456C96.4315 5.456 96.7569 5.584 97.0129 5.84C97.2795 6.08533 97.4129 6.39467 97.4129 6.768C97.4129 7.14133 97.2795 7.456 97.0129 7.712C96.7569 7.95733 96.4315 8.08 96.0369 8.08ZM97.1409 9.136V18H94.9009V9.136H97.1409ZM98.778 13.536C98.778 12.64 98.954 11.8453 99.306 11.152C99.6687 10.4587 100.154 9.92533 100.762 9.552C101.381 9.17867 102.069 8.992 102.826 8.992C103.487 8.992 104.063 9.12533 104.554 9.392C105.055 9.65867 105.455 9.99467 105.754 10.4V9.136H108.01V18H105.754V16.704C105.466 17.12 105.066 17.4667 104.554 17.744C104.053 18.0107 103.471 18.144 102.81 18.144C102.063 18.144 101.381 17.952 100.762 17.568C100.154 17.184 99.6687 16.6453 99.306 15.952C98.954 15.248 98.778 14.4427 98.778 13.536ZM105.754 13.568C105.754 13.024 105.647 12.56 105.434 12.176C105.221 11.7813 104.933 11.4827 104.57 11.28C104.207 11.0667 103.818 10.96 103.402 10.96C102.986 10.96 102.602 11.0613 102.25 11.264C101.898 11.4667 101.61 11.7653 101.386 12.16C101.173 12.544 101.066 13.0027 101.066 13.536C101.066 14.0693 101.173 14.5387 101.386 14.944C101.61 15.3387 101.898 15.6427 102.25 15.856C102.613 16.0693 102.997 16.176 103.402 16.176C103.818 16.176 104.207 16.0747 104.57 15.872C104.933 15.6587 105.221 15.36 105.434 14.976C105.647 14.5813 105.754 14.112 105.754 13.568ZM112.438 6.16V18H110.198V6.16H112.438Z" fill="#EF233C"/>
<path d="M14.9467 17.8333V14.6667C15.8333 14.54 16.4667 13.78 16.4667 12.7667C16.4667 11.7533 15.58 10.8667 14.5667 10.8667C13.5533 10.8667 12.6667 11.7533 12.6667 12.7667C12.6667 13.6533 13.3 14.54 14.1867 14.6667V17.8333H8.86667V3.26666H2.53334V17.8333H1.26667V18.4667H17.7333V17.8333H14.9467ZM7.6 14.6667H3.8V13.4H7.6V14.6667ZM7.6 12.1333H3.8V10.8667H7.6V12.1333ZM7.6 9.6H3.8V8.33333H7.6V9.6ZM7.6 7.06666H3.8V5.8H7.6V7.06666Z" fill="#EF233C"/>
<g clip-path="url(#clip0_44_2)">
<path fill-rule="evenodd" clip-rule="evenodd" d="M12.674 9.05592C12.6232 9.01974 12.5624 9.00031 12.5 9.00031C12.4376 9.00031 12.3768 9.01974 12.326 9.05592L8.126 12.0559C8.08706 12.0836 8.05531 12.1203 8.0334 12.1627C8.01148 12.2052 8.00003 12.2523 8 12.3001V17.7001C8 17.7797 8.03161 17.856 8.08787 17.9123C8.14413 17.9685 8.22044 18.0001 8.3 18.0001H9.2V13.8001H12.2V18.0001H16.7C16.7796 18.0001 16.8559 17.9685 16.9121 17.9123C16.9684 17.856 17 17.7797 17 17.7001V12.3001C17 12.2523 16.9885 12.2052 16.9666 12.1627C16.9447 12.1203 16.9129 12.0836 16.874 12.0559L16.4 11.7169V10.2001H15.8V11.2885L12.674 9.05652V9.05592ZM14.6 16.2001V13.8001H15.2V16.2001H14.6Z" fill="#EF233C"/>
<path d="M11.6 18V16.2H11V15.6H11.6V14.4H9.8V18H11.6Z" fill="#EF233C"/>
</g>
<defs>
<clipPath id="clip0_44_2">
<rect width="9" height="9" fill="white" transform="translate(8 9)"/>
</clipPath>
</defs>
</svg>
